<?xml version="1.0" encoding="iso-8859-1"?>
<!-- Generator: Adobe Illustrator 19.0.0, SVG Export Plug-In . SVG Version: 6.00 Build 0)  -->
<svg version="1.1" id="Layer_1" xmlns="http://www.w3.org/2000/svg" xmlns:xlink="http://www.w3.org/1999/xlink" x="0px" y="0px"
	 viewBox="0 0 330 330" style="enable-background:new 0 0 330 330;" xml:space="preserve">
<g id="XMLID_26_">
	<path id="XMLID_27_" d="M315,30h-85V15c0-8.284-6.716-15-15-15s-15,6.716-15,15v15h-70V15c0-8.284-6.716-15-15-15s-15,6.716-15,15
		v15H15C6.716,30,0,36.716,0,45v45h330V45C330,36.716,323.284,30,315,30z"/>
	<path id="XMLID_28_" d="M0,315c0,8.284,6.716,15,15,15h300c8.284,0,15-6.716,15-15V120H0V315z M187.816,177.098l9.706-13.729
		c0.028-0.041,0.058-0.082,0.088-0.121c0.865-1.162,3.164-4.248,7.86-4.248c5.347,0,9.535,3.975,9.535,9.049V251.1
		c0,5.144-4.402,9.173-10.021,9.173c-5.717,0-10.027-3.944-10.027-9.173v-57.014c-0.393,0.057-0.792,0.086-1.195,0.086
		c-5.058,0-9.172-4.277-9.172-9.535C184.59,181.871,186.148,178.89,187.816,177.098z M146.361,216.734
		c-5.314,0-9.172-3.961-9.172-9.416c0-5.436,3.891-9.535,9.049-9.535c6.938,0,9.246-1.39,9.246-9.611c0-8.273-2.824-9.73-8.76-9.73
		c-6.467,0-9.611,2.306-9.611,7.05c0,5.922-3.979,9.901-9.902,9.901c-3.789,0-10.146-1.382-10.146-10.637
		c0-8.866,6.251-25.633,29.907-25.633c17.997,0,28.318,10.011,28.318,27.465c0,8.12-2.075,14.975-5.881,19.894
		c5.419,4.868,8.318,11.891,8.318,20.473v2.318c0,19.867-11.772,31.729-31.49,31.729c-20.293,0-31.244-13.457-31.244-26.118
		c0-6.526,3.564-10.271,9.779-10.271c7.488,0,10.145,5.072,10.145,9.416c0,1.259,0.541,7.535,11.201,7.535
		c8.319,0,11.561-3.445,11.561-12.291v-2.318C157.68,221.9,156.336,216.734,146.361,216.734z"/>
</g>
<g>
</g>
<g>
</g>
<g>
</g>
<g>
</g>
<g>
</g>
<g>
</g>
<g>
</g>
<g>
</g>
<g>
</g>
<g>
</g>
<g>
</g>
<g>
</g>
<g>
</g>
<g>
</g>
<g>
</g>
</svg>
